<?xml version="1.0" encoding="UTF-8"?><svg id="a" xmlns="http://www.w3.org/2000/svg" width="24" height="24" viewBox="0 0 24 24"><path d="M11.87,8.21c2.9,0,5.81,.02,8.71,0,.89,0,1.55,.69,1.42,1.6-.12,.84-.16,1.7-.24,2.54-.12,1.34-.24,2.68-.37,4.02-.11,1.16-.21,2.33-.31,3.49-.03,.35-.05,.7-.09,1.05-.09,.72-.63,1.2-1.37,1.2-1.37,0-2.75,0-4.12,0-3.78,0-7.55,0-11.33,0-.63,0-1.14-.29-1.31-.81-.11-.33-.12-.69-.16-1.04-.13-1.35-.25-2.69-.37-4.04-.1-1.15-.21-2.3-.31-3.45-.09-.99-.15-1.98-.28-2.96-.12-.91,.53-1.61,1.42-1.6,2.9,.03,5.81,0,8.71,0Zm-8.17,1.9l.91,10.09h14.52l.95-10.09H3.7Z"/><path d="M2.51,6.91c0-.35-.03-.7,0-1.04,.05-.49,.4-.8,.91-.84,.06,0,.11,0,.17,0,5.61,0,11.22,0,16.83,0,.56,0,.95,.24,1.05,.7,.05,.22,.04,.45,.04,.67,0,.17,0,.33,0,.51H2.51Z"/><path d="M20.87,3.74H3.14c0-.35-.03-.7,0-1.04,.05-.49,.4-.8,.91-.84,.06,0,.11,0,.17,0,5.19,0,10.37,0,15.56,0,.56,0,.95,.24,1.05,.7,.05,.22,.04,.45,.04,.67,0,.17,0,.33,0,.51Z"/><g><path d="M13.33,15.93c0,.1,.08,.18,.19,.18h4.9c.22,0,.38,.16,.36,.36s-.21,.36-.42,.36h-4.85c-.54,0-.97-.4-.96-.91l.02-4.1c0-.23,.19-.42,.42-.42s.42,.19,.41,.42l-.07,4.1Zm3.52-1.42c-.17,.15-.42,.15-.57,0l-.69-.69-1.17,1.07c-.16,.15-.41,.15-.56,0-.15-.15-.15-.39,.01-.54l1.47-1.38c.17-.16,.43-.16,.58,0l.69,.71,1.45-1.32c.18-.16,.44-.16,.58,0,.15,.16,.12,.41-.05,.57l-1.75,1.57Z"/><path d="M5.51,16.23c-.05-.46,.32-.83,.81-.83h3.56c.49,0,.9,.37,.91,.83l.05,2.37c0,.42-.36,.75-.82,.75h-3.35c-.46,0-.87-.33-.91-.75l-.24-2.37Z"/><path d="M5.05,11.61c-.02-.18,.39-.32,.91-.32h3.78c.52,0,.95,.14,.95,.32l.02,.94c0,.17-.41,.31-.92,.31h-3.69c-.51,0-.94-.14-.95-.31l-.09-.94Z"/><path d="M12.53,18.32c0-.14,.46-.26,1.02-.26h4.06c.56,0,1,.12,.99,.26l-.08,.77c-.01,.14-.47,.25-1.02,.25h-3.98c-.55,0-.99-.11-.99-.25v-.77Z"/><path d="M5.26,13.71c-.02-.17,.38-.3,.89-.3h3.66c.51,0,.92,.13,.92,.3l.02,.89c0,.16-.39,.29-.89,.29h-3.59c-.5,0-.91-.13-.93-.29l-.09-.89Z"/></g></svg>