<svg id="Layer_1" data-name="Layer 1" xmlns="http://www.w3.org/2000/svg" viewBox="0 0 130 130">
  <g id="svg_29" data-name="svg 29">
    <path id="svg_24" data-name="svg 24" d="M89.14,25.17a11.38,11.38,0,1,1,11.38-11.38h0A11.38,11.38,0,0,1,89.14,25.17Zm0-15.54a4.17,4.17,0,1,0,4.2,4.17,4.16,4.16,0,0,0-4.2-4.17Z" style="fill: #333;stroke: #333;stroke-miterlimit: 10"/>
    <path id="svg_23" data-name="svg 23" d="M82.26,17.4a7.73,7.73,0,0,1,0-7.21H47.74a7.73,7.73,0,0,1,0,7.21Z" style="fill: #333;stroke: #333;stroke-miterlimit: 10"/>
    <path id="svg_22" data-name="svg 22" d="M100.61,10.19H96a7.73,7.73,0,0,1,0,7.21h4.59a12,12,0,0,1,12,12V57.18a7.73,7.73,0,0,1,7.21,0V29.4A19.23,19.23,0,0,0,100.61,10.19Z" style="fill: #333;stroke: #333;stroke-miterlimit: 10"/>
    <path id="svg_21" data-name="svg 21" d="M13.79,88.16A11.37,11.37,0,1,1,25.16,76.79,11.38,11.38,0,0,1,13.79,88.16Zm0-15.54A4.17,4.17,0,1,0,18,76.8h0A4.17,4.17,0,0,0,13.79,72.62Z" style="fill: #333;stroke: #333;stroke-miterlimit: 10"/>
    <path id="svg_20" data-name="svg 20" d="M65,127.6a11.38,11.38,0,1,1,11.34-11.42v0A11.4,11.4,0,0,1,65,127.6Zm0-15.54a4.17,4.17,0,1,0,4.17,4.17h0A4.17,4.17,0,0,0,65,112.06Z" style="fill: #333;stroke: #333;stroke-miterlimit: 10"/>
    <path id="svg_19" data-name="svg 19" d="M116.21,71.83a7.91,7.91,0,0,1-3.6-.88v29.67a12,12,0,0,1-12,12H71.88a7.73,7.73,0,0,1,0,7.21h28.73a19.24,19.24,0,0,0,19.21-19.21V71A8,8,0,0,1,116.21,71.83Z" style="fill: #333;stroke: #333;stroke-miterlimit: 10"/>
    <path id="svg_18" data-name="svg 18" d="M57.23,116.22a7.62,7.62,0,0,1,.89-3.6H29.39a12,12,0,0,1-12-12v-17a7.78,7.78,0,0,1-7.21,0v17a19.24,19.24,0,0,0,19.21,19.21H58.12A7.74,7.74,0,0,1,57.23,116.22Z" style="fill: #333;stroke: #333;stroke-miterlimit: 10"/>
    <path id="svg_17" data-name="svg 17" d="M40.86,25.17A11.38,11.38,0,1,1,52.23,13.78v0A11.4,11.4,0,0,1,40.86,25.17Zm0-15.54A4.17,4.17,0,1,0,45,13.81h0A4.17,4.17,0,0,0,40.86,9.63Z" style="fill: #333;stroke: #333;stroke-miterlimit: 10"/>
    <path id="svg_16" data-name="svg 16" d="M116.21,75.44a11.38,11.38,0,1,1,11.37-11.39h0A11.38,11.38,0,0,1,116.21,75.44Zm0-15.54a4.17,4.17,0,1,0,4.13,4.2v0A4.17,4.17,0,0,0,116.21,59.9Z" style="fill: #333;stroke: #333;stroke-miterlimit: 10"/>
    <rect id="svg_15" data-name="svg 15" x="58.38" y="47.02" width="28.92" height="7.2" style="fill: #333;stroke: #333;stroke-miterlimit: 10"/>
    <rect id="svg_14" data-name="svg 14" x="97.72" y="60.46" width="7.89" height="7.2" style="fill: #333;stroke: #333;stroke-miterlimit: 10"/>
    <rect id="svg_13" data-name="svg 13" x="38.99" y="82.72" width="27.07" height="7.2" style="fill: #333;stroke: #333;stroke-miterlimit: 10"/>
    <rect id="svg_12" data-name="svg 12" x="21.53" y="73.19" width="19.32" height="7.2" style="fill: #333;stroke: #333;stroke-miterlimit: 10"/>
    <rect id="svg_11" data-name="svg 11" x="61.4" y="85.65" width="7.2" height="23.47" style="fill: #333;stroke: #333;stroke-miterlimit: 10"/>
    <rect id="svg_10" data-name="svg 10" x="85.54" y="20.96" width="7.2" height="22.39" style="fill: #333;stroke: #333;stroke-miterlimit: 10"/>
    <rect id="svg_9" data-name="svg 9" x="37.25" y="20.96" width="7.2" height="36.49" style="fill: #333;stroke: #333;stroke-miterlimit: 10"/>
    <path id="svg_8" data-name="svg 8" d="M13.79,69a7.67,7.67,0,0,1,3.6.89V29.4a12,12,0,0,1,12-12H34a7.84,7.84,0,0,1,0-7.21H29.39A19.23,19.23,0,0,0,10.18,29.4V69.91A7.69,7.69,0,0,1,13.79,69Z" style="fill: #333;stroke: #333;stroke-miterlimit: 10"/>
    <g id="svg_28" data-name="svg 28">
      <rect id="svg_27" data-name="svg 27" x="80.18" y="41.22" width="17.92" height="57.48" style="fill: #333"/>
      <rect id="svg_26" data-name="svg 26" x="56.04" y="31.31" width="17.92" height="67.4" style="fill: #333"/>
      <rect id="svg_25" data-name="svg 25" x="31.9" y="54.56" width="17.92" height="44.15" style="fill: #333"/>
    </g>
  </g>
</svg>
