<?xml version="1.0" encoding="utf-8"?>
<!-- Generator: Adobe Illustrator 26.1.0, SVG Export Plug-In . SVG Version: 6.00 Build 0)  -->
<svg version="1.1" id="Layer_1" xmlns="http://www.w3.org/2000/svg" xmlns:xlink="http://www.w3.org/1999/xlink" x="0px" y="0px"
	 viewBox="0 0 24 24" style="enable-background:new 0 0 24 24;" xml:space="preserve">
<style type="text/css">
	.st0{fill:#FFFFFF;}
	.st1{opacity:0.3;fill:#FFFFFF;enable-background:new    ;}
</style>
<path class="st0" d="M20.9,9l-1.1,1.1c0.1,0.6,0.2,1.2,0.2,1.9c0,4.4-3.6,8-8,8s-8-3.6-8-8s3.6-8,8-8c0.6,0,1.3,0.1,1.9,0.2L15,3.1
	l0.5-0.5C14.4,2.2,13.2,2,12,2C6.5,2,2,6.5,2,12s4.5,10,10,10s10-4.5,10-10c0-1.2-0.2-2.4-0.6-3.5L20.9,9z"/>
<g>
	<path class="st0" d="M19.5,1.5c0.4,0,0.9,0.2,1.2,0.5L22,3.3c0.7,0.7,0.7,1.8,0,2.5L21,6.7L17.3,3L18.2,2C18.6,1.7,19,1.5,19.5,1.5
		"/>
	<path class="st0" d="M16.1,4.2L8,12.3V16h3.7l8.1-8.1L16.1,4.2z M11,14.3H9.7V13l6.3-6.3l1.2,1.2L11,14.3z"/>
</g>
<path class="st1" d="M12.8,17.1l-0.4,0.5h-0.6H8H6.4V16v-3.7v-0.6l0.4-0.4l7-7C13.3,4.1,12.6,4,12,4c-4.4,0-8,3.6-8,8s3.6,8,8,8
	s8-3.6,8-8c0-0.6-0.1-1.3-0.2-1.9L12.8,17.1z"/>
</svg>
