<?xml version="1.0" encoding="utf-8"?>
<!-- Generator: Adobe Illustrator 26.1.0, SVG Export Plug-In . SVG Version: 6.00 Build 0)  -->
<svg version="1.1" id="Layer_1" xmlns="http://www.w3.org/2000/svg" xmlns:xlink="http://www.w3.org/1999/xlink" x="0px" y="0px"
	 viewBox="0 0 24 24" style="enable-background:new 0 0 24 24;" xml:space="preserve">
<style type="text/css">
	.st0{fill:#FFFFFF;}
	.st1{fill:#FFFFFF;fill-opacity:0.3;}
</style>
<g>
	<path class="st0" d="M18.6,2.2c0.5,0,1,0.2,1.4,0.6l1.4,1.4c0.8,0.8,0.8,2.1,0,2.8l-1.1,1.1l-4.2-4.2l1.1-1.1
		C17.6,2.4,18.1,2.2,18.6,2.2"/>
	<g id="XMLID_00000170251445669151216410000006424143152381820584_">
		<path class="st0" d="M14.7,5.2l-9.2,9.2v4.2h4.2l9.2-9.2L14.7,5.2z M8.9,16.7H7.5v-1.4l7.2-7.2l1.4,1.4L8.9,16.7z"/>
	</g>
</g>
<polygon class="st0" points="21.9,9 21.7,9.2 20.4,10.4 20,10.9 20,20.1 4,20.1 4,8.1 9.3,8.1 11.3,6.1 2,6.1 2,22.1 22,22.1 
	22,8.9 "/>
<polygon class="st1" points="11.3,19.6 10.7,20.1 10,20.1 5.8,20.1 4,20.1 4,18.4 4,14.1 4,13.4 4.5,12.9 9.3,8.1 4,8.1 4,20.1 
	20,20.1 20,10.9 "/>
</svg>
