<?xml version="1.0" encoding="utf-8"?>
<!-- Generator: Adobe Illustrator 26.1.0, SVG Export Plug-In . SVG Version: 6.00 Build 0)  -->
<svg version="1.1" id="Layer_1" xmlns="http://www.w3.org/2000/svg" xmlns:xlink="http://www.w3.org/1999/xlink" x="0px" y="0px"
	 viewBox="0 0 24 24" style="enable-background:new 0 0 24 24;" xml:space="preserve">
<style type="text/css">
	.st0{opacity:0.3;fill:#FFFFFF;enable-background:new    ;}
	.st1{fill:#FFFFFF;}
</style>
<path class="st0" d="M3,3h2v2H3V3z M19,19h2v2h-2V19z M19,3h2v2h-2V3z M3,19h2v2H3V19z"/>
<path class="st1" d="M17,3H7V1H1v6h2v10H1v6h6v-2h10v2h6v-6h-2V7h2V1h-6V3z M3,3h2v2H3V3z M5,21H3v-2h2V21z M21,21h-2v-2h2V21z
	 M19,3h2v2h-2V3z M19,17h-2v2H7v-2H5V7h2V5h10v2h2V17z"/>
<path class="st1" d="M15.6,10h-2.7c1.4,1.3,2.4,3,2.7,5h-2c-0.2-1.4-0.9-2.6-1.9-3.4V14h-2V8h6V10z"/>
</svg>
