<?xml version="1.0" encoding="utf-8"?>
<!-- Generator: Adobe Illustrator 26.1.0, SVG Export Plug-In . SVG Version: 6.00 Build 0)  -->
<svg version="1.1" id="Layer_1" xmlns="http://www.w3.org/2000/svg" xmlns:xlink="http://www.w3.org/1999/xlink" x="0px" y="0px"
	 viewBox="0 0 24 24" style="enable-background:new 0 0 24 24;" xml:space="preserve">
<style type="text/css">
	.st0{fill:#FFFFFF;}
</style>
<polygon class="st0" points="7,19 5,19 5,5 7,5 9.9,5 9.9,3 3,3 3,7 3,17 3,21 9.9,21 9.9,19 "/>
<path class="st0" d="M23,7V1h-6v2h-2.9v2H17v2h2v10h-2v2h-2.9v2H17v2h6v-6h-2V7H23z M21,21h-2v-2h2V21z M19,5V3h2v2H19z"/>
<polygon class="st0" points="12.3,8 16.3,12 12.3,16 12.3,13 8.3,13 8.3,11 12.3,11 "/>
</svg>
