<?xml version="1.0" encoding="utf-8"?>
<!-- Generator: Adobe Illustrator 26.1.0, SVG Export Plug-In . SVG Version: 6.00 Build 0)  -->
<svg version="1.1" id="Layer_1" xmlns="http://www.w3.org/2000/svg" xmlns:xlink="http://www.w3.org/1999/xlink" x="0px" y="0px"
	 viewBox="0 0 24 24" style="enable-background:new 0 0 24 24;" xml:space="preserve">
<style type="text/css">
	.st0{opacity:0.3;fill:#FFFFFF;enable-background:new    ;}
	.st1{fill:#FFFFFF;}
</style>
<path class="st0" d="M3,3h2v2H3V3z M19,19h2v2h-2V19z M19,8h2v2h-2V8z M3,19h2v2H3V19z"/>
<path class="st1" d="M17,8L7,3V1H1v6h2v10H1v6h6v-2h10v2h6v-6h-2v-5h2V6h-6V8z M3,3h2v2H3V3z M5,21H3v-2h2V21z M21,21h-2v-2h2V21z
	 M19,8h2v2h-2V8z M19,17h-2v2H7v-2H5V7h2V5l10,5v2h2V17z"/>
<polygon class="st1" points="10.5,17.3 12.5,17.3 12.5,14.3 15.5,14.3 15.5,12.3 12.5,12.3 12.5,9.3 10.5,9.3 10.5,12.3 7.5,12.3 
	7.5,14.3 10.5,14.3 "/>
</svg>
