<?xml version="1.0" encoding="utf-8"?>
<!-- Generator: Adobe Illustrator 26.1.0, SVG Export Plug-In . SVG Version: 6.00 Build 0)  -->
<svg version="1.1" id="Layer_1" xmlns="http://www.w3.org/2000/svg" xmlns:xlink="http://www.w3.org/1999/xlink" x="0px" y="0px"
	 viewBox="0 0 24 24" style="enable-background:new 0 0 24 24;" xml:space="preserve">
<style type="text/css">
	.st0{opacity:0.3;fill:#00D0C7;enable-background:new    ;}
	.st1{fill:#00D0C7;}
	.st2{fill:#FFFFFF;}
	.st3{opacity:0.3;fill:#FFFFFF;enable-background:new    ;}
	.st4{fill:#B3B3B3;enable-background:new    ;}
	.st5{fill:#B3B3B3;}
</style>
<g>
	<path class="st0" d="M41.7,7.6h2v2h-2V7.6z M36.7,17.6h-2v-2h2V17.6z M48.7,23.6h-2v-2h2V23.6z"/>
	<path class="st1" d="M44.7,19.6v1.3l-6-3v-3.2l2.7-3.1h4.3v-6h-6v4.9L37,13.6h-4.3v6h5l7,3.5v2.5h6v-6H44.7z M41.7,7.6h2v2h-2V7.6z
		 M36.7,17.6h-2v-2h2V17.6z M48.7,23.6h-2v-2h2V23.6z"/>
</g>
<g>
	<path class="st2" d="M16.3,22.3h-1.9c0-8.2-4.5-12.8-12.8-12.8V7.7C11,7.7,16.3,13,16.3,22.3z"/>
</g>
<rect x="-6.6" y="-5.2" class="st3" width="2" height="2"/>
<rect x="-22.6" y="-5.2" class="st3" width="2" height="2"/>
<rect x="-22.6" y="-21.2" class="st3" width="2" height="2"/>
<path class="st2" d="M-6.6-7.2h-2v2h-10v-2h-2v-10h2v-2v-2v-2h-6v6h2v10h-2v6h6v-2h10v2h6v-6h-2H-6.6z M-22.6-21.2h2v2h-2V-21.2z
	 M-20.6-3.2h-2v-2h2V-3.2z M-4.6-3.2h-2v-2h2V-3.2z"/>
<rect x="-6.6" y="19" class="st3" width="2" height="2"/>
<rect x="-22.6" y="19" class="st3" width="2" height="2"/>
<rect x="11" y="11" class="st4" width="2" height="2"/>
<path class="st2" d="M-4.6,17h-2h-2v2h-10v-2h-2v-5.4h-2V17h-2v6h6v-2h10v2h6v-6H-4.6z M-20.6,21h-2v-2h2V21z M-4.6,21h-2v-2h2V21z"
	/>
<path class="st5" d="M19.7,18.1c-0.1,0-0.1,0-0.2,0L5.8,4.5c0-0.1,0-0.1,0-0.2c0-0.9-0.7-1.6-1.6-1.6c-0.9,0-1.6,0.7-1.6,1.6
	s0.7,1.6,1.6,1.6c0.1,0,0.1,0,0.2,0l13.6,13.6c0,0.1,0,0.1,0,0.2c0,0.9,0.7,1.6,1.6,1.6s1.6-0.7,1.6-1.6
	C21.3,18.8,20.6,18.1,19.7,18.1z"/>
<path class="st2" d="M13,15h2v-2v-2V9H9v6h2H13z M11,11h2v2h-2V11z"/>
</svg>
