<?xml version="1.0" encoding="utf-8"?>
<!-- Generator: Adobe Illustrator 26.1.0, SVG Export Plug-In . SVG Version: 6.00 Build 0)  -->
<svg version="1.1" id="Layer_1" xmlns="http://www.w3.org/2000/svg" xmlns:xlink="http://www.w3.org/1999/xlink" x="0px" y="0px"
	 viewBox="0 0 24 24" style="enable-background:new 0 0 24 24;" xml:space="preserve">
<style type="text/css">
	.st0{opacity:0.3;fill:#FFFFFF;enable-background:new    ;}
	.st1{fill:#FFFFFF;}
</style>
<path class="st0" d="M8,16h12V4H8V16z M10,9h3h2h3v2h-3h-2h-3V9z"/>
<path class="st1" d="M4,22h14v-2H4V6H2v14C2,21.1,2.9,22,4,22z M8,2C6.9,2,6,2.9,6,4v12c0,1.1,0.9,2,2,2h12c1.1,0,2-0.9,2-2V4
	c0-1.1-0.9-2-2-2H8z M20,16H8V4h12V16z M15,11h3V9h-3h-2h-3v2h3H15z"/>
</svg>
