<svg xmlns="http://www.w3.org/2000/svg" width="470" height="130" viewBox="0 0 470 130"><defs><style>.cls-1,.cls-2{fill:#fff;}.cls-2{stroke:#fff;stroke-miterlimit:10;}.cls-3{fill:#55bbe7;}</style></defs><g id="Layer_1" data-name="Layer 1"><path class="cls-1" d="M158.37,98.9V37.72h37.18V51.21H173.72v13h19.46V77.48H173.72V98.9Z"/><path class="cls-1" d="M202.66,38.65A8.4,8.4,0,1,1,211.11,47,8.42,8.42,0,0,1,202.66,38.65ZM218.42,98.9H203.79V52.55h14.63Z"/><path class="cls-1" d="M258.9,96.74c-1.55.82-4.74,1.44-8.24,1.44-13.6,0-23.08-8.14-23.08-23.07,0-14.63,9.79-23.59,25.86-23.59a53.81,53.81,0,0,1,20.08,3.71V97.77c0,16.48-13.49,20.7-23.89,20.7a37.62,37.62,0,0,1-16.38-3.6v-13.5c6.08,3.61,10.4,4.84,16.38,4.84,5.45,0,9.27-3,9.27-8.44Zm0-31.72a16.33,16.33,0,0,0-5.46-.83c-6.7,0-11,3.4-11,10.92,0,6.9,4.22,10.92,10.19,10.92a18.49,18.49,0,0,0,6.29-1.14Z"/><path class="cls-1" d="M300.3,98.9H285.68v-70H300.3Z"/><path class="cls-1" d="M311.73,38.65A8.4,8.4,0,1,1,320.18,47,8.43,8.43,0,0,1,311.73,38.65ZM327.49,98.9H312.87V52.55h14.62Z"/><path class="cls-1" d="M340.06,55.85a67.79,67.79,0,0,1,23.07-4.33c12.15,0,20.19,4.43,20.19,19.06V98.9H368.69V71.2c0-3.71-1.54-6.6-6.59-6.6a22.64,22.64,0,0,0-7.42,1.14V98.9H340.06Z"/><path class="cls-1" d="M422.15,99.83c-16.79-.83-30-13.49-30-31.52,0-18.64,14.11-31.62,31.82-31.62s31.93,13,31.93,31.62c0,13.49-7.42,24-18.33,28.84l13.9,16.58H433.68ZM424,50.49c-9.27,0-16.07,7.11-16.07,17.82s6.8,17.82,16.07,17.82S440.07,79,440.07,68.31,433.37,50.49,424,50.49Z"/><path class="cls-2" d="M17.24,69a7.81,7.81,0,0,1,3.61.89V29.39a12,12,0,0,1,12-12h4.58a7.75,7.75,0,0,1,0-7.21H32.85A19.23,19.23,0,0,0,13.64,29.39V69.9A7.8,7.8,0,0,1,17.24,69Z"/><rect class="cls-2" x="40.71" y="20.95" width="7.2" height="36.49"/><rect class="cls-2" x="89" y="20.95" width="7.2" height="22.39"/><rect class="cls-2" x="64.85" y="85.64" width="7.2" height="23.47"/><rect class="cls-2" x="24.99" y="73.18" width="19.32" height="7.2"/><rect class="cls-2" x="42.45" y="82.71" width="27.07" height="7.2"/><rect class="cls-2" x="101.18" y="60.45" width="7.89" height="7.2"/><rect class="cls-2" x="61.84" y="47.01" width="28.92" height="7.2"/><path class="cls-2" d="M119.67,75.43A11.38,11.38,0,1,1,131,64.05,11.38,11.38,0,0,1,119.67,75.43Zm0-15.54a4.17,4.17,0,1,0,4.17,4.16A4.17,4.17,0,0,0,119.67,59.89Z"/><path class="cls-2" d="M44.31,25.16A11.38,11.38,0,1,1,55.69,13.79,11.38,11.38,0,0,1,44.31,25.16Zm0-15.54a4.17,4.17,0,1,0,4.17,4.17A4.17,4.17,0,0,0,44.31,9.62Z"/><path class="cls-2" d="M60.69,116.21a7.67,7.67,0,0,1,.89-3.6H32.85a12,12,0,0,1-12-12v-17a7.75,7.75,0,0,1-7.21,0v17a19.23,19.23,0,0,0,19.21,19.21H61.58A7.71,7.71,0,0,1,60.69,116.21Z"/><path class="cls-2" d="M119.67,71.82a7.79,7.79,0,0,1-3.6-.88v29.67a12,12,0,0,1-12,12H75.34a7.75,7.75,0,0,1,0,7.21h28.73a19.23,19.23,0,0,0,19.2-19.21V70.94A7.76,7.76,0,0,1,119.67,71.82Z"/><path class="cls-2" d="M68.46,127.59a11.38,11.38,0,1,1,11.37-11.38A11.4,11.4,0,0,1,68.46,127.59Zm0-15.54a4.17,4.17,0,1,0,4.16,4.16A4.17,4.17,0,0,0,68.46,112.05Z"/><path class="cls-2" d="M17.24,88.15A11.37,11.37,0,1,1,28.62,76.78,11.38,11.38,0,0,1,17.24,88.15Zm0-15.54a4.17,4.17,0,1,0,4.17,4.17A4.17,4.17,0,0,0,17.24,72.61Z"/><path class="cls-2" d="M104.07,10.18H99.48a7.75,7.75,0,0,1,0,7.21h4.59a12,12,0,0,1,12,12V57.17a7.73,7.73,0,0,1,7.2,0V29.39A19.23,19.23,0,0,0,104.07,10.18Z"/><path class="cls-2" d="M85.72,17.39a7.75,7.75,0,0,1,0-7.21H51.19a7.75,7.75,0,0,1,0,7.21Z"/><path class="cls-2" d="M92.6,25.16A11.38,11.38,0,1,1,104,13.79,11.38,11.38,0,0,1,92.6,25.16Zm0-15.54a4.17,4.17,0,1,0,4.17,4.17A4.17,4.17,0,0,0,92.6,9.62Z"/><rect class="cls-3" x="35.35" y="54.55" width="17.92" height="44.15"/><rect class="cls-3" x="59.5" y="31.3" width="17.92" height="67.4"/><rect class="cls-3" x="83.64" y="41.21" width="17.92" height="57.48"/></g></svg>