<?xml version="1.0"?>
<svg width="130" height="130" xmlns="http://www.w3.org/2000/svg" xmlns:svg="http://www.w3.org/2000/svg">
 <defs>
  <style>.cls-1,.cls-2{fill:#07547d;}.cls-2{stroke:#07547d;stroke-miterlimit:10;}.cls-3{fill:#55bbe7;}</style>
 </defs>
 <g class="layer">
  <title>Layer 1</title>
  <g id="svg_29">
   <path class="cls-2" d="m89.140001,25.165131a11.38,11.38 0 1 1 11.38,-11.37a11.38,11.38 0 0 1 -11.38,11.37zm0,-15.54a4.17,4.17 0 1 0 4.2,4.17a4.17,4.17 0 0 0 -4.2,-4.17z" id="svg_24"/>
   <path class="cls-2" d="m82.260001,17.395131a7.75,7.75 0 0 1 0,-7.21l-34.52,0a7.75,7.75 0 0 1 0,7.21l34.52,0z" id="svg_23"/>
   <path class="cls-2" d="m100.610001,10.185131l-4.59,0a7.75,7.75 0 0 1 0,7.21l4.59,0a12,12 0 0 1 12,12l0,27.78a7.75,7.75 0 0 1 7.21,0l0,-27.78a19.23,19.23 0 0 0 -19.21,-19.21z" id="svg_22"/>
   <path class="cls-2" d="m13.790001,88.155131a11.37,11.37 0 1 1 11.37,-11.37a11.39,11.39 0 0 1 -11.37,11.37zm0,-15.54a4.17,4.17 0 1 0 4.16,4.17a4.17,4.17 0 0 0 -4.16,-4.17z" id="svg_21"/>
   <path class="cls-2" d="m65.000001,127.595131a11.38,11.38 0 1 1 11.34,-11.38a11.39,11.39 0 0 1 -11.34,11.38zm0,-15.54a4.17,4.17 0 1 0 4.17,4.16a4.17,4.17 0 0 0 -4.17,-4.16z" id="svg_20"/>
   <path class="cls-2" d="m116.210001,71.825131a7.79,7.79 0 0 1 -3.6,-0.88l0,29.67a12,12 0 0 1 -12,12l-28.73,0a7.75,7.75 0 0 1 0,7.21l28.73,0a19.23,19.23 0 0 0 19.21,-19.21l0,-29.67a7.83,7.83 0 0 1 -3.61,0.88z" fill="black" id="svg_19"/>
   <path class="cls-2" d="m57.230001,116.215131a7.67,7.67 0 0 1 0.89,-3.6l-28.73,0a12,12 0 0 1 -12,-12l0,-17a7.75,7.75 0 0 1 -7.21,0l0,17a19.23,19.23 0 0 0 19.21,19.21l28.73,0a7.71,7.71 0 0 1 -0.89,-3.61z" id="svg_18"/>
   <path class="cls-2" d="m40.860001,25.165131a11.38,11.38 0 1 1 11.37,-11.37a11.39,11.39 0 0 1 -11.37,11.37zm0,-15.54a4.17,4.17 0 1 0 4.16,4.17a4.17,4.17 0 0 0 -4.16,-4.17z" id="svg_17"/>
   <path class="cls-2" d="m116.210001,75.435131a11.38,11.38 0 1 1 11.37,-11.38a11.38,11.38 0 0 1 -11.37,11.38zm0,-15.54a4.17,4.17 0 1 0 4.13,4.16a4.17,4.17 0 0 0 -4.13,-4.16z" id="svg_16"/>
   <rect class="cls-2" height="7.2" id="svg_15" width="28.92" x="58.380001" y="47.015131"/>
   <rect class="cls-2" height="7.2" id="svg_14" width="7.89" x="97.720001" y="60.455131"/>
   <rect class="cls-2" height="7.2" id="svg_13" width="27.07" x="38.990001" y="82.715131"/>
   <rect class="cls-2" height="7.2" id="svg_12" width="19.32" x="21.530001" y="73.185131"/>
   <rect class="cls-2" height="23.47" id="svg_11" width="7.2" x="61.400001" y="85.645131"/>
   <rect class="cls-2" height="22.39" id="svg_10" width="7.2" x="85.540001" y="20.955131"/>
   <rect class="cls-2" height="36.49" id="svg_9" width="7.2" x="37.250001" y="20.955131"/>
   <path class="cls-2" d="m13.790001,69.005131a7.8,7.8 0 0 1 3.6,0.89l0,-40.5a12,12 0 0 1 12,-12l4.58,0a7.82,7.82 0 0 1 0,-7.21l-4.58,0a19.23,19.23 0 0 0 -19.21,19.21l0,40.51a7.84,7.84 0 0 1 3.61,-0.9z" id="svg_8"/>
   <g id="svg_28">
    <rect class="cls-3" height="57.48" id="svg_27" width="17.92" x="80.180001" y="41.215131"/>
    <rect class="cls-3" height="67.4" id="svg_26" width="17.92" x="56.040001" y="31.305131"/>
    <rect class="cls-3" fill="black" height="44.15" id="svg_25" width="17.92" x="31.900001" y="54.555131"/>
   </g>
  </g>
 </g>
</svg>