<svg xmlns="http://www.w3.org/2000/svg" width="470" height="130" viewBox="0 0 470 130"><defs><style>.cls-1,.cls-2{fill:#07547d;}.cls-2{stroke:#07547d;stroke-miterlimit:10;}.cls-3{fill:#55bbe7;}</style></defs><g id="Layer_1" data-name="Layer 1"><path class="cls-1" d="M158.57,98.9V37.72h37.18V51.21H173.92v13h19.46V77.48H173.92V98.9Z"/><path class="cls-1" d="M202.86,38.65A8.4,8.4,0,1,1,211.31,47,8.42,8.42,0,0,1,202.86,38.65ZM218.62,98.9H204V52.55h14.62Z"/><path class="cls-1" d="M259.1,96.74c-1.55.82-4.74,1.44-8.24,1.44-13.6,0-23.07-8.14-23.07-23.07,0-14.63,9.78-23.59,25.85-23.59a53.81,53.81,0,0,1,20.08,3.71V97.77c0,16.48-13.49,20.7-23.89,20.7a37.65,37.65,0,0,1-16.38-3.6v-13.5c6.08,3.61,10.4,4.84,16.38,4.84,5.46,0,9.27-3,9.27-8.44Zm0-31.72a16.33,16.33,0,0,0-5.46-.83c-6.7,0-11,3.4-11,10.92,0,6.9,4.22,10.92,10.2,10.92a18.48,18.48,0,0,0,6.28-1.14Z"/><path class="cls-1" d="M300.5,98.9H285.88v-70H300.5Z"/><path class="cls-1" d="M311.94,38.65A8.4,8.4,0,1,1,320.38,47,8.42,8.42,0,0,1,311.94,38.65ZM327.7,98.9H313.07V52.55H327.7Z"/><path class="cls-1" d="M340.26,55.85a67.83,67.83,0,0,1,23.07-4.33c12.16,0,20.19,4.43,20.19,19.06V98.9H368.89V71.2c0-3.71-1.54-6.6-6.59-6.6a22.54,22.54,0,0,0-7.41,1.14V98.9H340.26Z"/><path class="cls-1" d="M422.35,99.83c-16.79-.83-30-13.49-30-31.52,0-18.64,14.11-31.62,31.82-31.62s31.93,13,31.93,31.62c0,13.49-7.41,24-18.33,28.84l13.9,16.58H433.89Zm1.85-49.34c-9.27,0-16.06,7.11-16.06,17.82s6.79,17.82,16.06,17.82S440.27,79,440.27,68.31,433.58,50.49,424.2,50.49Z"/><path class="cls-2" d="M17.45,69a7.8,7.8,0,0,1,3.6.89V29.39a12,12,0,0,1,12-12h4.58a7.82,7.82,0,0,1,0-7.21H33.05A19.23,19.23,0,0,0,13.84,29.39V69.9A7.84,7.84,0,0,1,17.45,69Z"/><rect class="cls-2" x="40.91" y="20.95" width="7.2" height="36.49"/><rect class="cls-2" x="89.2" y="20.95" width="7.2" height="22.39"/><rect class="cls-2" x="65.06" y="85.64" width="7.2" height="23.47"/><rect class="cls-2" x="25.19" y="73.18" width="19.32" height="7.2"/><rect class="cls-2" x="42.65" y="82.71" width="27.07" height="7.2"/><rect class="cls-2" x="101.38" y="60.45" width="7.89" height="7.2"/><rect class="cls-2" x="62.04" y="47.01" width="28.92" height="7.2"/><path class="cls-2" d="M119.87,75.43a11.38,11.38,0,1,1,11.37-11.38A11.38,11.38,0,0,1,119.87,75.43Zm0-15.54A4.17,4.17,0,1,0,124,64.05,4.17,4.17,0,0,0,119.87,59.89Z"/><path class="cls-2" d="M44.52,25.16A11.38,11.38,0,1,1,55.89,13.79,11.39,11.39,0,0,1,44.52,25.16Zm0-15.54a4.17,4.17,0,1,0,4.16,4.17A4.17,4.17,0,0,0,44.52,9.62Z"/><path class="cls-2" d="M60.89,116.21a7.67,7.67,0,0,1,.89-3.6H33.05a12,12,0,0,1-12-12v-17a7.75,7.75,0,0,1-7.21,0v17a19.23,19.23,0,0,0,19.21,19.21H61.78A7.71,7.71,0,0,1,60.89,116.21Z"/><path class="cls-2" d="M119.87,71.82a7.79,7.79,0,0,1-3.6-.88v29.67a12,12,0,0,1-12,12H75.54a7.75,7.75,0,0,1,0,7.21h28.73a19.23,19.23,0,0,0,19.21-19.21V70.94A7.83,7.83,0,0,1,119.87,71.82Z"/><path class="cls-2" d="M68.66,127.59A11.38,11.38,0,1,1,80,116.21,11.39,11.39,0,0,1,68.66,127.59Zm0-15.54a4.17,4.17,0,1,0,4.17,4.16A4.17,4.17,0,0,0,68.66,112.05Z"/><path class="cls-2" d="M17.45,88.15A11.37,11.37,0,1,1,28.82,76.78,11.39,11.39,0,0,1,17.45,88.15Zm0-15.54a4.17,4.17,0,1,0,4.16,4.17A4.17,4.17,0,0,0,17.45,72.61Z"/><path class="cls-2" d="M104.27,10.18H99.68a7.75,7.75,0,0,1,0,7.21h4.59a12,12,0,0,1,12,12V57.17a7.75,7.75,0,0,1,7.21,0V29.39A19.23,19.23,0,0,0,104.27,10.18Z"/><path class="cls-2" d="M85.92,17.39a7.75,7.75,0,0,1,0-7.21H51.4a7.75,7.75,0,0,1,0,7.21Z"/><path class="cls-2" d="M92.8,25.16a11.38,11.38,0,1,1,11.38-11.37A11.38,11.38,0,0,1,92.8,25.16Zm0-15.54A4.17,4.17,0,1,0,97,13.79,4.17,4.17,0,0,0,92.8,9.62Z"/><rect class="cls-3" x="35.56" y="54.55" width="17.92" height="44.15"/><rect class="cls-3" x="59.7" y="31.3" width="17.92" height="67.4"/><rect class="cls-3" x="83.84" y="41.21" width="17.92" height="57.48"/></g></svg>